<mxfile host="app.diagrams.net" modified="2024-03-03T15:39:50.753Z" agent="Mozilla/5.0 (Macintosh; Intel Mac OS X 10_15_7) AppleWebKit/537.36 (KHTML, like Gecko) Chrome/122.0.0.0 Safari/537.36" etag="DZDTzlSpnwfFi9SzUIBR" version="24.0.1" type="device">
  <diagram id="C5RBs43oDa-KdzZeNtuy" name="Page-1">
    <mxGraphModel dx="1967" dy="2144" grid="1" gridSize="10" guides="1" tooltips="1" connect="1" arrows="1" fold="1" page="1" pageScale="1" pageWidth="827" pageHeight="1169" math="0" shadow="0">
      <root>
        <mxCell id="WIyWlLk6GJQsqaUBKTNV-0" />
        <mxCell id="WIyWlLk6GJQsqaUBKTNV-1" parent="WIyWlLk6GJQsqaUBKTNV-0" />
        <mxCell id="-gGK8Kazen-XzmpA0Os2-193" value="" style="rounded=1;whiteSpace=wrap;html=1;fontSize=12;glass=0;strokeWidth=1;shadow=0;arcSize=1;strokeColor=#A6A6A6;fillColor=#F7F7F7;movable=1;resizable=1;rotatable=1;deletable=1;editable=1;locked=0;connectable=1;" parent="WIyWlLk6GJQsqaUBKTNV-1" vertex="1">
          <mxGeometry x="-280" y="920" width="108.5" height="140" as="geometry" />
        </mxCell>
        <mxCell id="-gGK8Kazen-XzmpA0Os2-168" value="" style="rounded=1;whiteSpace=wrap;html=1;fontSize=12;glass=0;strokeWidth=1;shadow=0;arcSize=1;strokeColor=#A6A6A6;fillColor=#F7F7F7;movable=1;resizable=1;rotatable=1;deletable=1;editable=1;locked=0;connectable=1;" parent="WIyWlLk6GJQsqaUBKTNV-1" vertex="1">
          <mxGeometry x="299" y="1170" width="161" height="110" as="geometry" />
        </mxCell>
        <mxCell id="-gGK8Kazen-XzmpA0Os2-160" value="" style="rounded=1;whiteSpace=wrap;html=1;fontSize=12;glass=0;strokeWidth=1;shadow=0;arcSize=1;strokeColor=#A6A6A6;fillColor=#F7F7F7;movable=1;resizable=1;rotatable=1;deletable=1;editable=1;locked=0;connectable=1;" parent="WIyWlLk6GJQsqaUBKTNV-1" vertex="1">
          <mxGeometry x="577" y="950" width="173" height="130" as="geometry" />
        </mxCell>
        <mxCell id="-gGK8Kazen-XzmpA0Os2-61" value="" style="rounded=1;whiteSpace=wrap;html=1;fontSize=12;glass=0;strokeWidth=1;shadow=0;arcSize=1;strokeColor=#A6A6A6;fillColor=#F7F7F7;" parent="WIyWlLk6GJQsqaUBKTNV-1" vertex="1">
          <mxGeometry x="-76" y="920" width="580" height="80" as="geometry" />
        </mxCell>
        <mxCell id="-gGK8Kazen-XzmpA0Os2-59" value="" style="rounded=1;whiteSpace=wrap;html=1;fontSize=12;glass=0;strokeWidth=1;shadow=0;arcSize=1;strokeColor=#A6A6A6;fillColor=#F7F7F7;movable=1;resizable=1;rotatable=1;deletable=1;editable=1;locked=0;connectable=1;" parent="WIyWlLk6GJQsqaUBKTNV-1" vertex="1">
          <mxGeometry x="107" y="260" width="143" height="500" as="geometry" />
        </mxCell>
        <mxCell id="WIyWlLk6GJQsqaUBKTNV-3" value="TitleScreen" style="rounded=1;whiteSpace=wrap;html=1;fontSize=12;glass=0;strokeWidth=1;shadow=0;" parent="WIyWlLk6GJQsqaUBKTNV-1" vertex="1">
          <mxGeometry x="125" y="240" width="120" height="40" as="geometry" />
        </mxCell>
        <mxCell id="-gGK8Kazen-XzmpA0Os2-84" style="edgeStyle=orthogonalEdgeStyle;rounded=0;orthogonalLoop=1;jettySize=auto;html=1;entryX=0.5;entryY=0;entryDx=0;entryDy=0;" parent="WIyWlLk6GJQsqaUBKTNV-1" source="-gGK8Kazen-XzmpA0Os2-0" target="-gGK8Kazen-XzmpA0Os2-2" edge="1">
          <mxGeometry relative="1" as="geometry" />
        </mxCell>
        <mxCell id="-gGK8Kazen-XzmpA0Os2-0" value="IntroLogosScreen" style="rounded=1;whiteSpace=wrap;html=1;fontSize=12;glass=0;strokeWidth=1;shadow=0;" parent="WIyWlLk6GJQsqaUBKTNV-1" vertex="1">
          <mxGeometry x="105" y="29" width="160" height="50" as="geometry" />
        </mxCell>
        <mxCell id="-gGK8Kazen-XzmpA0Os2-222" style="edgeStyle=orthogonalEdgeStyle;rounded=0;orthogonalLoop=1;jettySize=auto;html=1;exitX=1;exitY=0.5;exitDx=0;exitDy=0;entryX=0.5;entryY=0;entryDx=0;entryDy=0;" parent="WIyWlLk6GJQsqaUBKTNV-1" source="-gGK8Kazen-XzmpA0Os2-2" target="-gGK8Kazen-XzmpA0Os2-221" edge="1">
          <mxGeometry relative="1" as="geometry" />
        </mxCell>
        <mxCell id="-gGK8Kazen-XzmpA0Os2-2" value="IntroStoryboardScreen" style="rounded=1;whiteSpace=wrap;html=1;fontSize=12;glass=0;strokeWidth=1;shadow=0;" parent="WIyWlLk6GJQsqaUBKTNV-1" vertex="1">
          <mxGeometry x="105" y="109" width="160" height="50" as="geometry" />
        </mxCell>
        <mxCell id="-gGK8Kazen-XzmpA0Os2-4" value="" style="edgeStyle=orthogonalEdgeStyle;rounded=0;orthogonalLoop=1;jettySize=auto;html=1;" parent="WIyWlLk6GJQsqaUBKTNV-1" source="-gGK8Kazen-XzmpA0Os2-3" target="-gGK8Kazen-XzmpA0Os2-0" edge="1">
          <mxGeometry relative="1" as="geometry" />
        </mxCell>
        <mxCell id="-gGK8Kazen-XzmpA0Os2-3" value="start program" style="rounded=1;whiteSpace=wrap;html=1;fontSize=12;glass=0;strokeWidth=1;shadow=0;fillColor=#d5e8d4;strokeColor=#82b366;" parent="WIyWlLk6GJQsqaUBKTNV-1" vertex="1">
          <mxGeometry x="142.5" y="-41" width="85" height="30" as="geometry" />
        </mxCell>
        <mxCell id="-gGK8Kazen-XzmpA0Os2-28" style="edgeStyle=orthogonalEdgeStyle;rounded=0;orthogonalLoop=1;jettySize=auto;html=1;" parent="WIyWlLk6GJQsqaUBKTNV-1" source="-gGK8Kazen-XzmpA0Os2-6" target="-gGK8Kazen-XzmpA0Os2-22" edge="1">
          <mxGeometry relative="1" as="geometry" />
        </mxCell>
        <mxCell id="-gGK8Kazen-XzmpA0Os2-6" value="AchievementsScreen" style="rounded=1;whiteSpace=wrap;html=1;fontSize=12;glass=0;strokeWidth=1;shadow=0;" parent="WIyWlLk6GJQsqaUBKTNV-1" vertex="1">
          <mxGeometry x="326" y="310" width="150" height="40" as="geometry" />
        </mxCell>
        <mxCell id="-gGK8Kazen-XzmpA0Os2-27" style="edgeStyle=orthogonalEdgeStyle;rounded=0;orthogonalLoop=1;jettySize=auto;html=1;" parent="WIyWlLk6GJQsqaUBKTNV-1" source="-gGK8Kazen-XzmpA0Os2-7" target="-gGK8Kazen-XzmpA0Os2-23" edge="1">
          <mxGeometry relative="1" as="geometry" />
        </mxCell>
        <mxCell id="-gGK8Kazen-XzmpA0Os2-7" value="*SettingsScreen" style="rounded=1;whiteSpace=wrap;html=1;fontSize=12;glass=0;strokeWidth=1;shadow=0;" parent="WIyWlLk6GJQsqaUBKTNV-1" vertex="1">
          <mxGeometry x="326" y="360" width="150" height="40" as="geometry" />
        </mxCell>
        <mxCell id="-gGK8Kazen-XzmpA0Os2-25" style="edgeStyle=orthogonalEdgeStyle;rounded=0;orthogonalLoop=1;jettySize=auto;html=1;entryX=0;entryY=0.5;entryDx=0;entryDy=0;" parent="WIyWlLk6GJQsqaUBKTNV-1" source="-gGK8Kazen-XzmpA0Os2-8" target="-gGK8Kazen-XzmpA0Os2-24" edge="1">
          <mxGeometry relative="1" as="geometry" />
        </mxCell>
        <mxCell id="-gGK8Kazen-XzmpA0Os2-8" value="VersionScreen" style="rounded=1;whiteSpace=wrap;html=1;fontSize=12;glass=0;strokeWidth=1;shadow=0;" parent="WIyWlLk6GJQsqaUBKTNV-1" vertex="1">
          <mxGeometry x="326" y="410" width="150" height="40" as="geometry" />
        </mxCell>
        <mxCell id="-gGK8Kazen-XzmpA0Os2-10" value="achievements" style="rounded=1;whiteSpace=wrap;html=1;fontSize=12;glass=0;strokeWidth=1;shadow=0;fillColor=#d5e8d4;strokeColor=#82b366;" parent="WIyWlLk6GJQsqaUBKTNV-1" vertex="1">
          <mxGeometry x="171" y="315" width="95" height="30" as="geometry" />
        </mxCell>
        <mxCell id="-gGK8Kazen-XzmpA0Os2-11" style="edgeStyle=orthogonalEdgeStyle;rounded=0;orthogonalLoop=1;jettySize=auto;html=1;entryX=-0.027;entryY=0.508;entryDx=0;entryDy=0;entryPerimeter=0;" parent="WIyWlLk6GJQsqaUBKTNV-1" source="-gGK8Kazen-XzmpA0Os2-112" target="-gGK8Kazen-XzmpA0Os2-6" edge="1">
          <mxGeometry relative="1" as="geometry" />
        </mxCell>
        <mxCell id="-gGK8Kazen-XzmpA0Os2-13" style="edgeStyle=orthogonalEdgeStyle;rounded=0;orthogonalLoop=1;jettySize=auto;html=1;entryX=0;entryY=0.5;entryDx=0;entryDy=0;" parent="WIyWlLk6GJQsqaUBKTNV-1" source="-gGK8Kazen-XzmpA0Os2-110" target="-gGK8Kazen-XzmpA0Os2-7" edge="1">
          <mxGeometry relative="1" as="geometry" />
        </mxCell>
        <mxCell id="-gGK8Kazen-XzmpA0Os2-12" value="settings" style="rounded=1;whiteSpace=wrap;html=1;fontSize=12;glass=0;strokeWidth=1;shadow=0;fillColor=#d5e8d4;strokeColor=#82b366;" parent="WIyWlLk6GJQsqaUBKTNV-1" vertex="1">
          <mxGeometry x="171" y="365" width="95" height="30" as="geometry" />
        </mxCell>
        <mxCell id="-gGK8Kazen-XzmpA0Os2-15" style="edgeStyle=orthogonalEdgeStyle;rounded=0;orthogonalLoop=1;jettySize=auto;html=1;entryX=0;entryY=0.5;entryDx=0;entryDy=0;" parent="WIyWlLk6GJQsqaUBKTNV-1" source="-gGK8Kazen-XzmpA0Os2-109" target="-gGK8Kazen-XzmpA0Os2-8" edge="1">
          <mxGeometry relative="1" as="geometry" />
        </mxCell>
        <mxCell id="-gGK8Kazen-XzmpA0Os2-14" value="version" style="rounded=1;whiteSpace=wrap;html=1;fontSize=12;glass=0;strokeWidth=1;shadow=0;fillColor=#d5e8d4;strokeColor=#82b366;" parent="WIyWlLk6GJQsqaUBKTNV-1" vertex="1">
          <mxGeometry x="171" y="415" width="95" height="30" as="geometry" />
        </mxCell>
        <mxCell id="-gGK8Kazen-XzmpA0Os2-131" style="edgeStyle=orthogonalEdgeStyle;rounded=0;orthogonalLoop=1;jettySize=auto;html=1;" parent="WIyWlLk6GJQsqaUBKTNV-1" source="-gGK8Kazen-XzmpA0Os2-16" edge="1">
          <mxGeometry relative="1" as="geometry">
            <mxPoint x="20" y="610" as="targetPoint" />
          </mxGeometry>
        </mxCell>
        <mxCell id="-gGK8Kazen-XzmpA0Os2-16" value="continue" style="rounded=1;whiteSpace=wrap;html=1;fontSize=12;glass=0;strokeWidth=1;shadow=0;fillColor=#d5e8d4;strokeColor=#82b366;" parent="WIyWlLk6GJQsqaUBKTNV-1" vertex="1">
          <mxGeometry x="87" y="595" width="103" height="30" as="geometry" />
        </mxCell>
        <mxCell id="-gGK8Kazen-XzmpA0Os2-132" style="edgeStyle=orthogonalEdgeStyle;rounded=0;orthogonalLoop=1;jettySize=auto;html=1;entryX=0;entryY=0.5;entryDx=0;entryDy=0;" parent="WIyWlLk6GJQsqaUBKTNV-1" source="-gGK8Kazen-XzmpA0Os2-133" target="-gGK8Kazen-XzmpA0Os2-83" edge="1">
          <mxGeometry relative="1" as="geometry" />
        </mxCell>
        <mxCell id="-gGK8Kazen-XzmpA0Os2-18" value="load_a_saved_game" style="rounded=1;whiteSpace=wrap;html=1;fontSize=12;glass=0;strokeWidth=1;shadow=0;fillColor=#d5e8d4;strokeColor=#82b366;" parent="WIyWlLk6GJQsqaUBKTNV-1" vertex="1">
          <mxGeometry x="126" y="651" width="140" height="30" as="geometry" />
        </mxCell>
        <mxCell id="-gGK8Kazen-XzmpA0Os2-19" value="start_new_game" style="rounded=1;whiteSpace=wrap;html=1;fontSize=12;glass=0;strokeWidth=1;shadow=0;fillColor=#d5e8d4;strokeColor=#82b366;" parent="WIyWlLk6GJQsqaUBKTNV-1" vertex="1">
          <mxGeometry x="87" y="535" width="120" height="30" as="geometry" />
        </mxCell>
        <mxCell id="-gGK8Kazen-XzmpA0Os2-123" style="edgeStyle=orthogonalEdgeStyle;rounded=0;orthogonalLoop=1;jettySize=auto;html=1;entryX=0;entryY=0.5;entryDx=0;entryDy=0;" parent="WIyWlLk6GJQsqaUBKTNV-1" source="-gGK8Kazen-XzmpA0Os2-22" target="-gGK8Kazen-XzmpA0Os2-121" edge="1">
          <mxGeometry relative="1" as="geometry" />
        </mxCell>
        <mxCell id="-gGK8Kazen-XzmpA0Os2-22" value="exit" style="rounded=1;whiteSpace=wrap;html=1;fontSize=12;glass=0;strokeWidth=1;shadow=0;fillColor=#d5e8d4;strokeColor=#82b366;" parent="WIyWlLk6GJQsqaUBKTNV-1" vertex="1">
          <mxGeometry x="496" y="315" width="95" height="30" as="geometry" />
        </mxCell>
        <mxCell id="-gGK8Kazen-XzmpA0Os2-116" style="edgeStyle=orthogonalEdgeStyle;rounded=0;orthogonalLoop=1;jettySize=auto;html=1;" parent="WIyWlLk6GJQsqaUBKTNV-1" source="-gGK8Kazen-XzmpA0Os2-125" edge="1">
          <mxGeometry relative="1" as="geometry">
            <mxPoint x="670.0000000000002" y="330" as="targetPoint" />
          </mxGeometry>
        </mxCell>
        <mxCell id="-gGK8Kazen-XzmpA0Os2-23" value="exit" style="rounded=1;whiteSpace=wrap;html=1;fontSize=12;glass=0;strokeWidth=1;shadow=0;fillColor=#d5e8d4;strokeColor=#82b366;" parent="WIyWlLk6GJQsqaUBKTNV-1" vertex="1">
          <mxGeometry x="496" y="365" width="95" height="30" as="geometry" />
        </mxCell>
        <mxCell id="-gGK8Kazen-XzmpA0Os2-117" style="edgeStyle=orthogonalEdgeStyle;rounded=0;orthogonalLoop=1;jettySize=auto;html=1;" parent="WIyWlLk6GJQsqaUBKTNV-1" source="-gGK8Kazen-XzmpA0Os2-127" edge="1">
          <mxGeometry relative="1" as="geometry">
            <mxPoint x="670.0000000000002" y="380" as="targetPoint" />
          </mxGeometry>
        </mxCell>
        <mxCell id="-gGK8Kazen-XzmpA0Os2-24" value="exit" style="rounded=1;whiteSpace=wrap;html=1;fontSize=12;glass=0;strokeWidth=1;shadow=0;fillColor=#d5e8d4;strokeColor=#82b366;" parent="WIyWlLk6GJQsqaUBKTNV-1" vertex="1">
          <mxGeometry x="496" y="415" width="95" height="30" as="geometry" />
        </mxCell>
        <mxCell id="-gGK8Kazen-XzmpA0Os2-35" style="edgeStyle=orthogonalEdgeStyle;rounded=0;orthogonalLoop=1;jettySize=auto;html=1;entryX=0;entryY=0.5;entryDx=0;entryDy=0;" parent="WIyWlLk6GJQsqaUBKTNV-1" source="-gGK8Kazen-XzmpA0Os2-106" target="-gGK8Kazen-XzmpA0Os2-34" edge="1">
          <mxGeometry relative="1" as="geometry" />
        </mxCell>
        <mxCell id="-gGK8Kazen-XzmpA0Os2-33" value="chapter select" style="rounded=1;whiteSpace=wrap;html=1;fontSize=12;glass=0;strokeWidth=1;shadow=0;fillColor=#d5e8d4;strokeColor=#82b366;" parent="WIyWlLk6GJQsqaUBKTNV-1" vertex="1">
          <mxGeometry x="126" y="467" width="140" height="30" as="geometry" />
        </mxCell>
        <mxCell id="-gGK8Kazen-XzmpA0Os2-37" style="edgeStyle=orthogonalEdgeStyle;rounded=0;orthogonalLoop=1;jettySize=auto;html=1;" parent="WIyWlLk6GJQsqaUBKTNV-1" source="-gGK8Kazen-XzmpA0Os2-34" target="-gGK8Kazen-XzmpA0Os2-36" edge="1">
          <mxGeometry relative="1" as="geometry" />
        </mxCell>
        <mxCell id="-gGK8Kazen-XzmpA0Os2-34" value="ChapterSelectScreen" style="rounded=1;whiteSpace=wrap;html=1;fontSize=12;glass=0;strokeWidth=1;shadow=0;" parent="WIyWlLk6GJQsqaUBKTNV-1" vertex="1">
          <mxGeometry x="326" y="462" width="150" height="40" as="geometry" />
        </mxCell>
        <mxCell id="-gGK8Kazen-XzmpA0Os2-118" style="edgeStyle=orthogonalEdgeStyle;rounded=0;orthogonalLoop=1;jettySize=auto;html=1;" parent="WIyWlLk6GJQsqaUBKTNV-1" source="-gGK8Kazen-XzmpA0Os2-129" edge="1">
          <mxGeometry relative="1" as="geometry">
            <mxPoint x="670.0000000000002" y="430" as="targetPoint" />
          </mxGeometry>
        </mxCell>
        <mxCell id="-gGK8Kazen-XzmpA0Os2-36" value="exit" style="rounded=1;whiteSpace=wrap;html=1;fontSize=12;glass=0;strokeWidth=1;shadow=0;fillColor=#d5e8d4;strokeColor=#82b366;" parent="WIyWlLk6GJQsqaUBKTNV-1" vertex="1">
          <mxGeometry x="496" y="467" width="95" height="30" as="geometry" />
        </mxCell>
        <mxCell id="-gGK8Kazen-XzmpA0Os2-47" style="edgeStyle=orthogonalEdgeStyle;rounded=0;orthogonalLoop=1;jettySize=auto;html=1;entryX=0.5;entryY=0;entryDx=0;entryDy=0;" parent="WIyWlLk6GJQsqaUBKTNV-1" source="-gGK8Kazen-XzmpA0Os2-39" target="-gGK8Kazen-XzmpA0Os2-45" edge="1">
          <mxGeometry relative="1" as="geometry" />
        </mxCell>
        <mxCell id="-gGK8Kazen-XzmpA0Os2-39" value="load_game_and_state" style="rounded=1;whiteSpace=wrap;html=1;fontSize=12;glass=0;strokeWidth=1;shadow=0;fillColor=#ffe6cc;strokeColor=#d79b00;" parent="WIyWlLk6GJQsqaUBKTNV-1" vertex="1">
          <mxGeometry x="210" y="820" width="170" height="50" as="geometry" />
        </mxCell>
        <mxCell id="-gGK8Kazen-XzmpA0Os2-45" value="PrimaryGameplayScreen" style="rounded=1;whiteSpace=wrap;html=1;fontSize=12;glass=0;strokeWidth=1;shadow=0;" parent="WIyWlLk6GJQsqaUBKTNV-1" vertex="1">
          <mxGeometry x="210" y="900" width="170" height="40" as="geometry" />
        </mxCell>
        <mxCell id="-gGK8Kazen-XzmpA0Os2-56" style="edgeStyle=orthogonalEdgeStyle;rounded=0;orthogonalLoop=1;jettySize=auto;html=1;" parent="WIyWlLk6GJQsqaUBKTNV-1" source="-gGK8Kazen-XzmpA0Os2-48" target="-gGK8Kazen-XzmpA0Os2-55" edge="1">
          <mxGeometry relative="1" as="geometry" />
        </mxCell>
        <mxCell id="-gGK8Kazen-XzmpA0Os2-48" value="win_game" style="rounded=1;whiteSpace=wrap;html=1;fontSize=12;glass=0;strokeWidth=1;shadow=0;fillColor=#e1d5e7;strokeColor=#9673a6;" parent="WIyWlLk6GJQsqaUBKTNV-1" vertex="1">
          <mxGeometry x="169" y="990" width="90" height="30" as="geometry" />
        </mxCell>
        <mxCell id="-gGK8Kazen-XzmpA0Os2-80" style="edgeStyle=orthogonalEdgeStyle;rounded=0;orthogonalLoop=1;jettySize=auto;html=1;" parent="WIyWlLk6GJQsqaUBKTNV-1" source="-gGK8Kazen-XzmpA0Os2-49" target="-gGK8Kazen-XzmpA0Os2-79" edge="1">
          <mxGeometry relative="1" as="geometry" />
        </mxCell>
        <mxCell id="-gGK8Kazen-XzmpA0Os2-49" value="lose_life" style="rounded=1;whiteSpace=wrap;html=1;fontSize=12;glass=0;strokeWidth=1;shadow=0;fillColor=#e1d5e7;strokeColor=#9673a6;" parent="WIyWlLk6GJQsqaUBKTNV-1" vertex="1">
          <mxGeometry x="279" y="990" width="90" height="30" as="geometry" />
        </mxCell>
        <mxCell id="-gGK8Kazen-XzmpA0Os2-159" style="edgeStyle=orthogonalEdgeStyle;rounded=0;orthogonalLoop=1;jettySize=auto;html=1;entryX=0.5;entryY=0;entryDx=0;entryDy=0;exitX=0.5;exitY=1;exitDx=0;exitDy=0;" parent="WIyWlLk6GJQsqaUBKTNV-1" source="-gGK8Kazen-XzmpA0Os2-51" target="-gGK8Kazen-XzmpA0Os2-74" edge="1">
          <mxGeometry relative="1" as="geometry">
            <Array as="points">
              <mxPoint x="435" y="1040" />
              <mxPoint x="550" y="1040" />
              <mxPoint x="550" y="910" />
              <mxPoint x="661" y="910" />
            </Array>
          </mxGeometry>
        </mxCell>
        <mxCell id="-gGK8Kazen-XzmpA0Os2-51" value="pause_game" style="rounded=1;whiteSpace=wrap;html=1;fontSize=12;glass=0;strokeWidth=1;shadow=0;fillColor=#d5e8d4;strokeColor=#82b366;" parent="WIyWlLk6GJQsqaUBKTNV-1" vertex="1">
          <mxGeometry x="390" y="990" width="90" height="30" as="geometry" />
        </mxCell>
        <mxCell id="-gGK8Kazen-XzmpA0Os2-190" style="edgeStyle=orthogonalEdgeStyle;rounded=0;orthogonalLoop=1;jettySize=auto;html=1;" parent="WIyWlLk6GJQsqaUBKTNV-1" source="-gGK8Kazen-XzmpA0Os2-52" target="-gGK8Kazen-XzmpA0Os2-176" edge="1">
          <mxGeometry relative="1" as="geometry" />
        </mxCell>
        <mxCell id="-gGK8Kazen-XzmpA0Os2-52" value="lose_game" style="rounded=1;whiteSpace=wrap;html=1;fontSize=12;glass=0;strokeWidth=1;shadow=0;fillColor=#e1d5e7;strokeColor=#9673a6;" parent="WIyWlLk6GJQsqaUBKTNV-1" vertex="1">
          <mxGeometry x="60" y="990" width="90" height="30" as="geometry" />
        </mxCell>
        <mxCell id="-gGK8Kazen-XzmpA0Os2-78" style="edgeStyle=orthogonalEdgeStyle;rounded=0;orthogonalLoop=1;jettySize=auto;html=1;entryX=0.5;entryY=0;entryDx=0;entryDy=0;exitX=0.5;exitY=1;exitDx=0;exitDy=0;" parent="WIyWlLk6GJQsqaUBKTNV-1" source="-gGK8Kazen-XzmpA0Os2-204" target="-gGK8Kazen-XzmpA0Os2-77" edge="1">
          <mxGeometry relative="1" as="geometry" />
        </mxCell>
        <mxCell id="-gGK8Kazen-XzmpA0Os2-55" value="OutroStoryboardScreen" style="rounded=1;whiteSpace=wrap;html=1;fontSize=12;glass=0;strokeWidth=1;shadow=0;" parent="WIyWlLk6GJQsqaUBKTNV-1" vertex="1">
          <mxGeometry x="129" y="1060" width="170" height="40" as="geometry" />
        </mxCell>
        <mxCell id="-gGK8Kazen-XzmpA0Os2-97" style="edgeStyle=orthogonalEdgeStyle;rounded=0;orthogonalLoop=1;jettySize=auto;html=1;entryX=1;entryY=0.5;entryDx=0;entryDy=0;" parent="WIyWlLk6GJQsqaUBKTNV-1" source="-gGK8Kazen-XzmpA0Os2-146" target="-gGK8Kazen-XzmpA0Os2-96" edge="1">
          <mxGeometry relative="1" as="geometry" />
        </mxCell>
        <mxCell id="-gGK8Kazen-XzmpA0Os2-60" value="NewGameIntroStoryboardScreen" style="rounded=1;whiteSpace=wrap;html=1;fontSize=12;glass=0;strokeWidth=1;shadow=0;" parent="WIyWlLk6GJQsqaUBKTNV-1" vertex="1">
          <mxGeometry x="-373" y="606" width="220" height="40" as="geometry" />
        </mxCell>
        <mxCell id="-gGK8Kazen-XzmpA0Os2-74" value="PauseScreen" style="rounded=1;whiteSpace=wrap;html=1;fontSize=12;glass=0;strokeWidth=1;shadow=0;" parent="WIyWlLk6GJQsqaUBKTNV-1" vertex="1">
          <mxGeometry x="591" y="930" width="139" height="40" as="geometry" />
        </mxCell>
        <mxCell id="-gGK8Kazen-XzmpA0Os2-180" style="edgeStyle=orthogonalEdgeStyle;rounded=0;orthogonalLoop=1;jettySize=auto;html=1;entryX=0.5;entryY=0;entryDx=0;entryDy=0;" parent="WIyWlLk6GJQsqaUBKTNV-1" source="-gGK8Kazen-XzmpA0Os2-77" target="-gGK8Kazen-XzmpA0Os2-158" edge="1">
          <mxGeometry relative="1" as="geometry" />
        </mxCell>
        <mxCell id="-gGK8Kazen-XzmpA0Os2-77" value="GameWonScreen" style="rounded=1;whiteSpace=wrap;html=1;fontSize=12;glass=0;strokeWidth=1;shadow=0;" parent="WIyWlLk6GJQsqaUBKTNV-1" vertex="1">
          <mxGeometry x="150" y="1240" width="132" height="40" as="geometry" />
        </mxCell>
        <mxCell id="-gGK8Kazen-XzmpA0Os2-79" value="YouFailedScreen" style="rounded=1;whiteSpace=wrap;html=1;fontSize=12;glass=0;strokeWidth=1;shadow=0;" parent="WIyWlLk6GJQsqaUBKTNV-1" vertex="1">
          <mxGeometry x="310" y="1150" width="132" height="40" as="geometry" />
        </mxCell>
        <mxCell id="-gGK8Kazen-XzmpA0Os2-81" value="exit" style="rounded=1;whiteSpace=wrap;html=1;fontSize=12;glass=0;strokeWidth=1;shadow=0;fillColor=#d5e8d4;strokeColor=#82b366;" parent="WIyWlLk6GJQsqaUBKTNV-1" vertex="1">
          <mxGeometry x="667.5" y="1030" width="95" height="30" as="geometry" />
        </mxCell>
        <mxCell id="-gGK8Kazen-XzmpA0Os2-137" style="edgeStyle=orthogonalEdgeStyle;rounded=0;orthogonalLoop=1;jettySize=auto;html=1;entryX=0;entryY=0.5;entryDx=0;entryDy=0;" parent="WIyWlLk6GJQsqaUBKTNV-1" source="-gGK8Kazen-XzmpA0Os2-83" target="-gGK8Kazen-XzmpA0Os2-136" edge="1">
          <mxGeometry relative="1" as="geometry" />
        </mxCell>
        <mxCell id="-gGK8Kazen-XzmpA0Os2-142" style="edgeStyle=orthogonalEdgeStyle;rounded=0;orthogonalLoop=1;jettySize=auto;html=1;entryX=0.5;entryY=0;entryDx=0;entryDy=0;" parent="WIyWlLk6GJQsqaUBKTNV-1" source="-gGK8Kazen-XzmpA0Os2-217" target="-gGK8Kazen-XzmpA0Os2-141" edge="1">
          <mxGeometry relative="1" as="geometry" />
        </mxCell>
        <mxCell id="-gGK8Kazen-XzmpA0Os2-83" value="*LoadASavedGameScreen" style="rounded=1;whiteSpace=wrap;html=1;fontSize=12;glass=0;strokeWidth=1;shadow=0;" parent="WIyWlLk6GJQsqaUBKTNV-1" vertex="1">
          <mxGeometry x="326" y="646" width="174" height="40" as="geometry" />
        </mxCell>
        <mxCell id="-gGK8Kazen-XzmpA0Os2-145" style="edgeStyle=orthogonalEdgeStyle;rounded=0;orthogonalLoop=1;jettySize=auto;html=1;entryX=0.5;entryY=0;entryDx=0;entryDy=0;" parent="WIyWlLk6GJQsqaUBKTNV-1" source="-gGK8Kazen-XzmpA0Os2-85" target="-gGK8Kazen-XzmpA0Os2-144" edge="1">
          <mxGeometry relative="1" as="geometry" />
        </mxCell>
        <mxCell id="-gGK8Kazen-XzmpA0Os2-85" value="load_chapter" style="rounded=1;whiteSpace=wrap;html=1;fontSize=12;glass=0;strokeWidth=1;shadow=0;fillColor=#d5e8d4;strokeColor=#82b366;" parent="WIyWlLk6GJQsqaUBKTNV-1" vertex="1">
          <mxGeometry x="353.5" y="528" width="95" height="30" as="geometry" />
        </mxCell>
        <mxCell id="-gGK8Kazen-XzmpA0Os2-87" style="edgeStyle=orthogonalEdgeStyle;rounded=0;orthogonalLoop=1;jettySize=auto;html=1;entryX=0.5;entryY=-0.07;entryDx=0;entryDy=0;entryPerimeter=0;" parent="WIyWlLk6GJQsqaUBKTNV-1" source="-gGK8Kazen-XzmpA0Os2-34" target="-gGK8Kazen-XzmpA0Os2-85" edge="1">
          <mxGeometry relative="1" as="geometry" />
        </mxCell>
        <mxCell id="-gGK8Kazen-XzmpA0Os2-192" style="edgeStyle=orthogonalEdgeStyle;rounded=0;orthogonalLoop=1;jettySize=auto;html=1;entryX=0.5;entryY=0;entryDx=0;entryDy=0;exitX=0.5;exitY=1;exitDx=0;exitDy=0;" parent="WIyWlLk6GJQsqaUBKTNV-1" source="-gGK8Kazen-XzmpA0Os2-92" target="-gGK8Kazen-XzmpA0Os2-191" edge="1">
          <mxGeometry relative="1" as="geometry">
            <Array as="points">
              <mxPoint x="-5" y="1040" />
              <mxPoint x="-110" y="1040" />
              <mxPoint x="-110" y="880" />
              <mxPoint x="-225" y="880" />
            </Array>
          </mxGeometry>
        </mxCell>
        <mxCell id="-gGK8Kazen-XzmpA0Os2-92" value="beat_level" style="rounded=1;whiteSpace=wrap;html=1;fontSize=12;glass=0;strokeWidth=1;shadow=0;fillColor=#e1d5e7;strokeColor=#9673a6;" parent="WIyWlLk6GJQsqaUBKTNV-1" vertex="1">
          <mxGeometry x="-50" y="990" width="90" height="30" as="geometry" />
        </mxCell>
        <mxCell id="-gGK8Kazen-XzmpA0Os2-233" style="edgeStyle=orthogonalEdgeStyle;rounded=0;orthogonalLoop=1;jettySize=auto;html=1;entryX=0.5;entryY=0;entryDx=0;entryDy=0;" parent="WIyWlLk6GJQsqaUBKTNV-1" source="-gGK8Kazen-XzmpA0Os2-96" target="-gGK8Kazen-XzmpA0Os2-60" edge="1">
          <mxGeometry relative="1" as="geometry" />
        </mxCell>
        <mxCell id="-gGK8Kazen-XzmpA0Os2-96" value="start_new_game" style="rounded=1;whiteSpace=wrap;html=1;fontSize=12;glass=0;strokeWidth=3;shadow=0;fillColor=#e1d5e7;strokeColor=#990000;gradientColor=#FFE6CC;" parent="WIyWlLk6GJQsqaUBKTNV-1" vertex="1">
          <mxGeometry x="-328" y="535" width="130" height="30" as="geometry" />
        </mxCell>
        <mxCell id="-gGK8Kazen-XzmpA0Os2-98" value="(skipable)" style="text;html=1;strokeColor=none;fillColor=none;align=center;verticalAlign=middle;whiteSpace=wrap;rounded=0;" parent="WIyWlLk6GJQsqaUBKTNV-1" vertex="1">
          <mxGeometry x="207" y="155" width="60" height="30" as="geometry" />
        </mxCell>
        <mxCell id="-gGK8Kazen-XzmpA0Os2-99" value="(not_skipable)" style="text;html=1;strokeColor=none;fillColor=none;align=center;verticalAlign=middle;whiteSpace=wrap;rounded=0;" parent="WIyWlLk6GJQsqaUBKTNV-1" vertex="1">
          <mxGeometry x="200" y="73" width="60" height="30" as="geometry" />
        </mxCell>
        <mxCell id="-gGK8Kazen-XzmpA0Os2-100" value="(skipable)" style="text;html=1;strokeColor=none;fillColor=none;align=center;verticalAlign=middle;whiteSpace=wrap;rounded=0;" parent="WIyWlLk6GJQsqaUBKTNV-1" vertex="1">
          <mxGeometry x="-208" y="642" width="60" height="30" as="geometry" />
        </mxCell>
        <mxCell id="-gGK8Kazen-XzmpA0Os2-103" value="" style="edgeStyle=orthogonalEdgeStyle;rounded=0;orthogonalLoop=1;jettySize=auto;html=1;" parent="WIyWlLk6GJQsqaUBKTNV-1" source="-gGK8Kazen-XzmpA0Os2-19" target="-gGK8Kazen-XzmpA0Os2-101" edge="1">
          <mxGeometry relative="1" as="geometry">
            <mxPoint x="87" y="550" as="sourcePoint" />
            <mxPoint x="17" y="550" as="targetPoint" />
          </mxGeometry>
        </mxCell>
        <mxCell id="-gGK8Kazen-XzmpA0Os2-225" style="edgeStyle=orthogonalEdgeStyle;rounded=0;orthogonalLoop=1;jettySize=auto;html=1;entryX=1;entryY=0.5;entryDx=0;entryDy=0;" parent="WIyWlLk6GJQsqaUBKTNV-1" source="-gGK8Kazen-XzmpA0Os2-101" target="-gGK8Kazen-XzmpA0Os2-224" edge="1">
          <mxGeometry relative="1" as="geometry" />
        </mxCell>
        <mxCell id="-gGK8Kazen-XzmpA0Os2-101" value="" style="rounded=1;whiteSpace=wrap;html=1;fillColor=#e1d5e7;strokeColor=#9673a6;" parent="WIyWlLk6GJQsqaUBKTNV-1" vertex="1">
          <mxGeometry x="50" y="535" width="10" height="30" as="geometry" />
        </mxCell>
        <mxCell id="-gGK8Kazen-XzmpA0Os2-108" value="" style="edgeStyle=orthogonalEdgeStyle;rounded=0;orthogonalLoop=1;jettySize=auto;html=1;entryX=0;entryY=0.5;entryDx=0;entryDy=0;" parent="WIyWlLk6GJQsqaUBKTNV-1" source="-gGK8Kazen-XzmpA0Os2-33" target="-gGK8Kazen-XzmpA0Os2-106" edge="1">
          <mxGeometry relative="1" as="geometry">
            <mxPoint x="266" y="482" as="sourcePoint" />
            <mxPoint x="326" y="482" as="targetPoint" />
          </mxGeometry>
        </mxCell>
        <mxCell id="-gGK8Kazen-XzmpA0Os2-106" value="" style="rounded=1;whiteSpace=wrap;html=1;fillColor=#e1d5e7;strokeColor=#9673a6;" parent="WIyWlLk6GJQsqaUBKTNV-1" vertex="1">
          <mxGeometry x="290" y="467" width="10" height="30" as="geometry" />
        </mxCell>
        <mxCell id="-gGK8Kazen-XzmpA0Os2-111" value="" style="edgeStyle=orthogonalEdgeStyle;rounded=0;orthogonalLoop=1;jettySize=auto;html=1;entryX=0;entryY=0.5;entryDx=0;entryDy=0;" parent="WIyWlLk6GJQsqaUBKTNV-1" source="-gGK8Kazen-XzmpA0Os2-12" target="-gGK8Kazen-XzmpA0Os2-110" edge="1">
          <mxGeometry relative="1" as="geometry">
            <mxPoint x="266" y="380" as="sourcePoint" />
            <mxPoint x="326" y="380" as="targetPoint" />
          </mxGeometry>
        </mxCell>
        <mxCell id="-gGK8Kazen-XzmpA0Os2-110" value="" style="rounded=1;whiteSpace=wrap;html=1;fillColor=#e1d5e7;strokeColor=#9673a6;" parent="WIyWlLk6GJQsqaUBKTNV-1" vertex="1">
          <mxGeometry x="290" y="365" width="10" height="30" as="geometry" />
        </mxCell>
        <mxCell id="-gGK8Kazen-XzmpA0Os2-113" value="" style="edgeStyle=orthogonalEdgeStyle;rounded=0;orthogonalLoop=1;jettySize=auto;html=1;entryX=-0.027;entryY=0.508;entryDx=0;entryDy=0;entryPerimeter=0;" parent="WIyWlLk6GJQsqaUBKTNV-1" source="-gGK8Kazen-XzmpA0Os2-10" target="-gGK8Kazen-XzmpA0Os2-112" edge="1">
          <mxGeometry relative="1" as="geometry">
            <mxPoint x="266" y="330" as="sourcePoint" />
            <mxPoint x="322" y="330" as="targetPoint" />
          </mxGeometry>
        </mxCell>
        <mxCell id="-gGK8Kazen-XzmpA0Os2-112" value="" style="rounded=1;whiteSpace=wrap;html=1;fillColor=#e1d5e7;strokeColor=#9673a6;" parent="WIyWlLk6GJQsqaUBKTNV-1" vertex="1">
          <mxGeometry x="290" y="315" width="10" height="30" as="geometry" />
        </mxCell>
        <mxCell id="-gGK8Kazen-XzmpA0Os2-114" value="" style="edgeStyle=orthogonalEdgeStyle;rounded=0;orthogonalLoop=1;jettySize=auto;html=1;entryX=0;entryY=0.5;entryDx=0;entryDy=0;" parent="WIyWlLk6GJQsqaUBKTNV-1" source="-gGK8Kazen-XzmpA0Os2-14" target="-gGK8Kazen-XzmpA0Os2-109" edge="1">
          <mxGeometry relative="1" as="geometry">
            <mxPoint x="266" y="430" as="sourcePoint" />
            <mxPoint x="326" y="430" as="targetPoint" />
          </mxGeometry>
        </mxCell>
        <mxCell id="-gGK8Kazen-XzmpA0Os2-109" value="" style="rounded=1;whiteSpace=wrap;html=1;fillColor=#e1d5e7;strokeColor=#9673a6;" parent="WIyWlLk6GJQsqaUBKTNV-1" vertex="1">
          <mxGeometry x="290" y="415" width="10" height="30" as="geometry" />
        </mxCell>
        <mxCell id="-gGK8Kazen-XzmpA0Os2-124" style="edgeStyle=orthogonalEdgeStyle;rounded=0;orthogonalLoop=1;jettySize=auto;html=1;entryX=1;entryY=0.25;entryDx=0;entryDy=0;" parent="WIyWlLk6GJQsqaUBKTNV-1" source="-gGK8Kazen-XzmpA0Os2-121" target="WIyWlLk6GJQsqaUBKTNV-3" edge="1">
          <mxGeometry relative="1" as="geometry">
            <Array as="points">
              <mxPoint x="670" y="330" />
              <mxPoint x="670" y="250" />
            </Array>
          </mxGeometry>
        </mxCell>
        <mxCell id="-gGK8Kazen-XzmpA0Os2-121" value="" style="rounded=1;whiteSpace=wrap;html=1;fillColor=#e1d5e7;strokeColor=#9673a6;" parent="WIyWlLk6GJQsqaUBKTNV-1" vertex="1">
          <mxGeometry x="620" y="315" width="10" height="30" as="geometry" />
        </mxCell>
        <mxCell id="-gGK8Kazen-XzmpA0Os2-126" value="" style="edgeStyle=orthogonalEdgeStyle;rounded=0;orthogonalLoop=1;jettySize=auto;html=1;" parent="WIyWlLk6GJQsqaUBKTNV-1" source="-gGK8Kazen-XzmpA0Os2-23" target="-gGK8Kazen-XzmpA0Os2-125" edge="1">
          <mxGeometry relative="1" as="geometry">
            <mxPoint x="670.0000000000002" y="330" as="targetPoint" />
            <mxPoint x="591" y="380" as="sourcePoint" />
          </mxGeometry>
        </mxCell>
        <mxCell id="-gGK8Kazen-XzmpA0Os2-125" value="" style="rounded=1;whiteSpace=wrap;html=1;fillColor=#e1d5e7;strokeColor=#9673a6;" parent="WIyWlLk6GJQsqaUBKTNV-1" vertex="1">
          <mxGeometry x="620" y="365" width="10" height="30" as="geometry" />
        </mxCell>
        <mxCell id="-gGK8Kazen-XzmpA0Os2-128" value="" style="edgeStyle=orthogonalEdgeStyle;rounded=0;orthogonalLoop=1;jettySize=auto;html=1;" parent="WIyWlLk6GJQsqaUBKTNV-1" source="-gGK8Kazen-XzmpA0Os2-24" target="-gGK8Kazen-XzmpA0Os2-127" edge="1">
          <mxGeometry relative="1" as="geometry">
            <mxPoint x="670.0000000000002" y="380" as="targetPoint" />
            <mxPoint x="591" y="430" as="sourcePoint" />
          </mxGeometry>
        </mxCell>
        <mxCell id="-gGK8Kazen-XzmpA0Os2-127" value="" style="rounded=1;whiteSpace=wrap;html=1;fillColor=#e1d5e7;strokeColor=#9673a6;" parent="WIyWlLk6GJQsqaUBKTNV-1" vertex="1">
          <mxGeometry x="620" y="415" width="10" height="30" as="geometry" />
        </mxCell>
        <mxCell id="-gGK8Kazen-XzmpA0Os2-130" value="" style="edgeStyle=orthogonalEdgeStyle;rounded=0;orthogonalLoop=1;jettySize=auto;html=1;" parent="WIyWlLk6GJQsqaUBKTNV-1" source="-gGK8Kazen-XzmpA0Os2-36" target="-gGK8Kazen-XzmpA0Os2-129" edge="1">
          <mxGeometry relative="1" as="geometry">
            <mxPoint x="670.0000000000002" y="430" as="targetPoint" />
            <mxPoint x="591" y="482" as="sourcePoint" />
          </mxGeometry>
        </mxCell>
        <mxCell id="-gGK8Kazen-XzmpA0Os2-129" value="" style="rounded=1;whiteSpace=wrap;html=1;fillColor=#e1d5e7;strokeColor=#9673a6;" parent="WIyWlLk6GJQsqaUBKTNV-1" vertex="1">
          <mxGeometry x="620" y="465" width="10" height="30" as="geometry" />
        </mxCell>
        <mxCell id="-gGK8Kazen-XzmpA0Os2-134" value="" style="edgeStyle=orthogonalEdgeStyle;rounded=0;orthogonalLoop=1;jettySize=auto;html=1;entryX=0;entryY=0.5;entryDx=0;entryDy=0;" parent="WIyWlLk6GJQsqaUBKTNV-1" source="-gGK8Kazen-XzmpA0Os2-18" target="-gGK8Kazen-XzmpA0Os2-133" edge="1">
          <mxGeometry relative="1" as="geometry">
            <mxPoint x="266" y="666" as="sourcePoint" />
            <mxPoint x="326" y="666" as="targetPoint" />
          </mxGeometry>
        </mxCell>
        <mxCell id="-gGK8Kazen-XzmpA0Os2-133" value="" style="rounded=1;whiteSpace=wrap;html=1;fillColor=#e1d5e7;strokeColor=#9673a6;" parent="WIyWlLk6GJQsqaUBKTNV-1" vertex="1">
          <mxGeometry x="290" y="651" width="10" height="30" as="geometry" />
        </mxCell>
        <mxCell id="-gGK8Kazen-XzmpA0Os2-135" value="continue_last_save" style="rounded=1;whiteSpace=wrap;html=1;fontSize=12;glass=0;strokeWidth=3;shadow=0;fillColor=#e1d5e7;strokeColor=#990000;gradientColor=#FFE6CC;" parent="WIyWlLk6GJQsqaUBKTNV-1" vertex="1">
          <mxGeometry x="-120" y="595" width="140" height="30" as="geometry" />
        </mxCell>
        <mxCell id="-gGK8Kazen-XzmpA0Os2-139" style="edgeStyle=orthogonalEdgeStyle;rounded=0;orthogonalLoop=1;jettySize=auto;html=1;entryX=0;entryY=0.5;entryDx=0;entryDy=0;" parent="WIyWlLk6GJQsqaUBKTNV-1" source="-gGK8Kazen-XzmpA0Os2-136" target="-gGK8Kazen-XzmpA0Os2-138" edge="1">
          <mxGeometry relative="1" as="geometry" />
        </mxCell>
        <mxCell id="-gGK8Kazen-XzmpA0Os2-136" value="exit" style="rounded=1;whiteSpace=wrap;html=1;fontSize=12;glass=0;strokeWidth=1;shadow=0;fillColor=#d5e8d4;strokeColor=#82b366;" parent="WIyWlLk6GJQsqaUBKTNV-1" vertex="1">
          <mxGeometry x="523" y="651" width="95" height="30" as="geometry" />
        </mxCell>
        <mxCell id="-gGK8Kazen-XzmpA0Os2-140" style="edgeStyle=orthogonalEdgeStyle;rounded=0;orthogonalLoop=1;jettySize=auto;html=1;" parent="WIyWlLk6GJQsqaUBKTNV-1" source="-gGK8Kazen-XzmpA0Os2-138" edge="1">
          <mxGeometry relative="1" as="geometry">
            <mxPoint x="670" y="480" as="targetPoint" />
          </mxGeometry>
        </mxCell>
        <mxCell id="-gGK8Kazen-XzmpA0Os2-138" value="" style="rounded=1;whiteSpace=wrap;html=1;fillColor=#e1d5e7;strokeColor=#9673a6;" parent="WIyWlLk6GJQsqaUBKTNV-1" vertex="1">
          <mxGeometry x="638" y="651" width="10" height="30" as="geometry" />
        </mxCell>
        <mxCell id="-gGK8Kazen-XzmpA0Os2-231" style="edgeStyle=orthogonalEdgeStyle;rounded=0;orthogonalLoop=1;jettySize=auto;html=1;entryX=0;entryY=0.5;entryDx=0;entryDy=0;" parent="WIyWlLk6GJQsqaUBKTNV-1" source="-gGK8Kazen-XzmpA0Os2-141" target="-gGK8Kazen-XzmpA0Os2-227" edge="1">
          <mxGeometry relative="1" as="geometry" />
        </mxCell>
        <mxCell id="-gGK8Kazen-XzmpA0Os2-141" value="load_save_file" style="rounded=1;whiteSpace=wrap;html=1;fontSize=12;glass=0;strokeWidth=3;shadow=0;fillColor=#e1d5e7;strokeColor=#990000;gradientColor=#FFE6CC;" parent="WIyWlLk6GJQsqaUBKTNV-1" vertex="1">
          <mxGeometry x="348" y="746" width="130" height="30" as="geometry" />
        </mxCell>
        <mxCell id="-gGK8Kazen-XzmpA0Os2-144" value="start_chapter" style="rounded=1;whiteSpace=wrap;html=1;fontSize=12;glass=0;strokeWidth=3;shadow=0;fillColor=#e1d5e7;strokeColor=#990000;gradientColor=#FFE6CC;" parent="WIyWlLk6GJQsqaUBKTNV-1" vertex="1">
          <mxGeometry x="336" y="579" width="130" height="30" as="geometry" />
        </mxCell>
        <mxCell id="-gGK8Kazen-XzmpA0Os2-146" value="" style="rounded=1;whiteSpace=wrap;html=1;fillColor=#e1d5e7;strokeColor=#9673a6;" parent="WIyWlLk6GJQsqaUBKTNV-1" vertex="1">
          <mxGeometry x="-153" y="535" width="10" height="30" as="geometry" />
        </mxCell>
        <mxCell id="-gGK8Kazen-XzmpA0Os2-151" value="" style="edgeStyle=orthogonalEdgeStyle;rounded=0;orthogonalLoop=1;jettySize=auto;html=1;entryX=0.5;entryY=0;entryDx=0;entryDy=0;" parent="WIyWlLk6GJQsqaUBKTNV-1" source="-gGK8Kazen-XzmpA0Os2-55" target="-gGK8Kazen-XzmpA0Os2-150" edge="1">
          <mxGeometry relative="1" as="geometry">
            <mxPoint x="214" y="1100" as="sourcePoint" />
            <mxPoint x="213" y="1150" as="targetPoint" />
          </mxGeometry>
        </mxCell>
        <mxCell id="-gGK8Kazen-XzmpA0Os2-207" style="edgeStyle=orthogonalEdgeStyle;rounded=0;orthogonalLoop=1;jettySize=auto;html=1;entryX=0.5;entryY=0;entryDx=0;entryDy=0;" parent="WIyWlLk6GJQsqaUBKTNV-1" source="-gGK8Kazen-XzmpA0Os2-150" target="-gGK8Kazen-XzmpA0Os2-204" edge="1">
          <mxGeometry relative="1" as="geometry" />
        </mxCell>
        <mxCell id="-gGK8Kazen-XzmpA0Os2-150" value="" style="rounded=1;whiteSpace=wrap;html=1;fontSize=9;glass=0;strokeWidth=1;shadow=0;fillColor=#e1d5e7;strokeColor=#9673a6;" parent="WIyWlLk6GJQsqaUBKTNV-1" vertex="1">
          <mxGeometry x="192" y="1109" width="48" height="11" as="geometry" />
        </mxCell>
        <mxCell id="-gGK8Kazen-XzmpA0Os2-187" style="edgeStyle=orthogonalEdgeStyle;rounded=0;orthogonalLoop=1;jettySize=auto;html=1;entryX=0.5;entryY=0;entryDx=0;entryDy=0;" parent="WIyWlLk6GJQsqaUBKTNV-1" source="-gGK8Kazen-XzmpA0Os2-158" target="-gGK8Kazen-XzmpA0Os2-184" edge="1">
          <mxGeometry relative="1" as="geometry">
            <Array as="points">
              <mxPoint x="216" y="1330" />
              <mxPoint x="127" y="1330" />
            </Array>
          </mxGeometry>
        </mxCell>
        <mxCell id="-gGK8Kazen-XzmpA0Os2-158" value="" style="rounded=1;whiteSpace=wrap;html=1;fontSize=9;glass=0;strokeWidth=1;shadow=0;fillColor=#e1d5e7;strokeColor=#9673a6;" parent="WIyWlLk6GJQsqaUBKTNV-1" vertex="1">
          <mxGeometry x="192" y="1296" width="48" height="11" as="geometry" />
        </mxCell>
        <mxCell id="-gGK8Kazen-XzmpA0Os2-162" value="are you sure?" style="rounded=0;whiteSpace=wrap;html=1;fillColor=#dae8fc;strokeColor=#6c8ebf;" parent="WIyWlLk6GJQsqaUBKTNV-1" vertex="1">
          <mxGeometry x="790" y="1030" width="100" height="30" as="geometry" />
        </mxCell>
        <mxCell id="-gGK8Kazen-XzmpA0Os2-167" value="continue_last_save" style="rounded=1;whiteSpace=wrap;html=1;fontSize=12;glass=0;strokeWidth=3;shadow=0;fillColor=#e1d5e7;strokeColor=#990000;gradientColor=#FFE6CC;" parent="WIyWlLk6GJQsqaUBKTNV-1" vertex="1">
          <mxGeometry x="556" y="1199" width="130" height="30" as="geometry" />
        </mxCell>
        <mxCell id="-gGK8Kazen-XzmpA0Os2-199" style="edgeStyle=orthogonalEdgeStyle;rounded=0;orthogonalLoop=1;jettySize=auto;html=1;entryX=0;entryY=0.5;entryDx=0;entryDy=0;" parent="WIyWlLk6GJQsqaUBKTNV-1" source="-gGK8Kazen-XzmpA0Os2-200" target="-gGK8Kazen-XzmpA0Os2-174" edge="1">
          <mxGeometry relative="1" as="geometry" />
        </mxCell>
        <mxCell id="-gGK8Kazen-XzmpA0Os2-169" value="exit_to_title" style="rounded=1;whiteSpace=wrap;html=1;fontSize=12;glass=0;strokeWidth=1;shadow=0;fillColor=#d5e8d4;strokeColor=#82b366;" parent="WIyWlLk6GJQsqaUBKTNV-1" vertex="1">
          <mxGeometry x="380" y="1240" width="95" height="30" as="geometry" />
        </mxCell>
        <mxCell id="-gGK8Kazen-XzmpA0Os2-171" style="edgeStyle=orthogonalEdgeStyle;rounded=0;orthogonalLoop=1;jettySize=auto;html=1;entryX=0;entryY=0.5;entryDx=0;entryDy=0;" parent="WIyWlLk6GJQsqaUBKTNV-1" source="-gGK8Kazen-XzmpA0Os2-172" target="-gGK8Kazen-XzmpA0Os2-167" edge="1">
          <mxGeometry relative="1" as="geometry" />
        </mxCell>
        <mxCell id="-gGK8Kazen-XzmpA0Os2-170" value="try_again" style="rounded=1;whiteSpace=wrap;html=1;fontSize=12;glass=0;strokeWidth=1;shadow=0;fillColor=#d5e8d4;strokeColor=#82b366;" parent="WIyWlLk6GJQsqaUBKTNV-1" vertex="1">
          <mxGeometry x="380" y="1199" width="95" height="30" as="geometry" />
        </mxCell>
        <mxCell id="-gGK8Kazen-XzmpA0Os2-173" value="" style="edgeStyle=orthogonalEdgeStyle;rounded=0;orthogonalLoop=1;jettySize=auto;html=1;entryX=0;entryY=0.5;entryDx=0;entryDy=0;" parent="WIyWlLk6GJQsqaUBKTNV-1" source="-gGK8Kazen-XzmpA0Os2-170" target="-gGK8Kazen-XzmpA0Os2-172" edge="1">
          <mxGeometry relative="1" as="geometry">
            <mxPoint x="475" y="1214" as="sourcePoint" />
            <mxPoint x="538" y="1214" as="targetPoint" />
          </mxGeometry>
        </mxCell>
        <mxCell id="-gGK8Kazen-XzmpA0Os2-172" value="" style="rounded=1;whiteSpace=wrap;html=1;fillColor=#e1d5e7;strokeColor=#9673a6;" parent="WIyWlLk6GJQsqaUBKTNV-1" vertex="1">
          <mxGeometry x="498" y="1199" width="10" height="30" as="geometry" />
        </mxCell>
        <mxCell id="-gGK8Kazen-XzmpA0Os2-203" style="edgeStyle=orthogonalEdgeStyle;rounded=0;orthogonalLoop=1;jettySize=auto;html=1;" parent="WIyWlLk6GJQsqaUBKTNV-1" source="-gGK8Kazen-XzmpA0Os2-174" edge="1">
          <mxGeometry relative="1" as="geometry">
            <mxPoint x="650" y="1255" as="targetPoint" />
          </mxGeometry>
        </mxCell>
        <mxCell id="-gGK8Kazen-XzmpA0Os2-174" value="are you sure?" style="rounded=0;whiteSpace=wrap;html=1;fillColor=#dae8fc;strokeColor=#6c8ebf;" parent="WIyWlLk6GJQsqaUBKTNV-1" vertex="1">
          <mxGeometry x="530" y="1240" width="100" height="30" as="geometry" />
        </mxCell>
        <mxCell id="-gGK8Kazen-XzmpA0Os2-176" value="GameOverScreen" style="rounded=1;whiteSpace=wrap;html=1;fontSize=12;glass=0;strokeWidth=1;shadow=0;" parent="WIyWlLk6GJQsqaUBKTNV-1" vertex="1">
          <mxGeometry x="-23" y="1150" width="132" height="40" as="geometry" />
        </mxCell>
        <mxCell id="-gGK8Kazen-XzmpA0Os2-189" style="edgeStyle=orthogonalEdgeStyle;rounded=0;orthogonalLoop=1;jettySize=auto;html=1;entryX=0.5;entryY=0;entryDx=0;entryDy=0;exitX=0.5;exitY=1;exitDx=0;exitDy=0;" parent="WIyWlLk6GJQsqaUBKTNV-1" source="-gGK8Kazen-XzmpA0Os2-177" target="-gGK8Kazen-XzmpA0Os2-184" edge="1">
          <mxGeometry relative="1" as="geometry">
            <Array as="points">
              <mxPoint x="43" y="1330" />
              <mxPoint x="127" y="1330" />
            </Array>
          </mxGeometry>
        </mxCell>
        <mxCell id="-gGK8Kazen-XzmpA0Os2-177" value="" style="rounded=1;whiteSpace=wrap;html=1;fontSize=9;glass=0;strokeWidth=1;shadow=0;fillColor=#e1d5e7;strokeColor=#9673a6;" parent="WIyWlLk6GJQsqaUBKTNV-1" vertex="1">
          <mxGeometry x="19" y="1218" width="48" height="11" as="geometry" />
        </mxCell>
        <mxCell id="-gGK8Kazen-XzmpA0Os2-179" style="edgeStyle=orthogonalEdgeStyle;rounded=0;orthogonalLoop=1;jettySize=auto;html=1;entryX=0.496;entryY=-0.128;entryDx=0;entryDy=0;entryPerimeter=0;" parent="WIyWlLk6GJQsqaUBKTNV-1" source="-gGK8Kazen-XzmpA0Os2-176" target="-gGK8Kazen-XzmpA0Os2-177" edge="1">
          <mxGeometry relative="1" as="geometry" />
        </mxCell>
        <mxCell id="-gGK8Kazen-XzmpA0Os2-183" style="edgeStyle=orthogonalEdgeStyle;rounded=0;orthogonalLoop=1;jettySize=auto;html=1;entryX=0;entryY=0.25;entryDx=0;entryDy=0;" parent="WIyWlLk6GJQsqaUBKTNV-1" source="-gGK8Kazen-XzmpA0Os2-181" target="WIyWlLk6GJQsqaUBKTNV-3" edge="1">
          <mxGeometry relative="1" as="geometry" />
        </mxCell>
        <mxCell id="-gGK8Kazen-XzmpA0Os2-181" value="-&amp;gt; to TitleScreen" style="rounded=0;whiteSpace=wrap;html=1;dashed=1;perimeterSpacing=8;" parent="WIyWlLk6GJQsqaUBKTNV-1" vertex="1">
          <mxGeometry x="-110" y="230" width="120" height="40" as="geometry" />
        </mxCell>
        <mxCell id="-gGK8Kazen-XzmpA0Os2-184" value="to TitleScreen -&amp;gt;" style="rounded=0;whiteSpace=wrap;html=1;dashed=1;perimeterSpacing=8;" parent="WIyWlLk6GJQsqaUBKTNV-1" vertex="1">
          <mxGeometry x="67" y="1360" width="120" height="40" as="geometry" />
        </mxCell>
        <mxCell id="-gGK8Kazen-XzmpA0Os2-191" value="LevelSelectScreen" style="rounded=1;whiteSpace=wrap;html=1;fontSize=12;glass=0;strokeWidth=1;shadow=0;" parent="WIyWlLk6GJQsqaUBKTNV-1" vertex="1">
          <mxGeometry x="-310" y="900" width="170" height="40" as="geometry" />
        </mxCell>
        <mxCell id="-gGK8Kazen-XzmpA0Os2-214" style="edgeStyle=orthogonalEdgeStyle;rounded=0;orthogonalLoop=1;jettySize=auto;html=1;entryX=1;entryY=0.5;entryDx=0;entryDy=0;" parent="WIyWlLk6GJQsqaUBKTNV-1" source="-gGK8Kazen-XzmpA0Os2-194" target="-gGK8Kazen-XzmpA0Os2-212" edge="1">
          <mxGeometry relative="1" as="geometry" />
        </mxCell>
        <mxCell id="-gGK8Kazen-XzmpA0Os2-194" value="exit" style="rounded=1;whiteSpace=wrap;html=1;fontSize=12;glass=0;strokeWidth=1;shadow=0;fillColor=#d5e8d4;strokeColor=#82b366;" parent="WIyWlLk6GJQsqaUBKTNV-1" vertex="1">
          <mxGeometry x="-300" y="1010" width="95" height="30" as="geometry" />
        </mxCell>
        <mxCell id="-gGK8Kazen-XzmpA0Os2-198" style="edgeStyle=orthogonalEdgeStyle;rounded=0;orthogonalLoop=1;jettySize=auto;html=1;entryX=1;entryY=0.5;entryDx=0;entryDy=0;" parent="WIyWlLk6GJQsqaUBKTNV-1" source="-gGK8Kazen-XzmpA0Os2-196" target="-gGK8Kazen-XzmpA0Os2-197" edge="1">
          <mxGeometry relative="1" as="geometry" />
        </mxCell>
        <mxCell id="-gGK8Kazen-XzmpA0Os2-196" value="select_level" style="rounded=1;whiteSpace=wrap;html=1;fontSize=12;glass=0;strokeWidth=1;shadow=0;fillColor=#d5e8d4;strokeColor=#82b366;" parent="WIyWlLk6GJQsqaUBKTNV-1" vertex="1">
          <mxGeometry x="-300" y="960" width="95" height="30" as="geometry" />
        </mxCell>
        <mxCell id="-gGK8Kazen-XzmpA0Os2-197" value="load_level_and_start" style="rounded=1;whiteSpace=wrap;html=1;fontSize=12;glass=0;strokeWidth=3;shadow=0;fillColor=#e1d5e7;strokeColor=#990000;gradientColor=#FFE6CC;" parent="WIyWlLk6GJQsqaUBKTNV-1" vertex="1">
          <mxGeometry x="-470" y="960" width="141" height="30" as="geometry" />
        </mxCell>
        <mxCell id="-gGK8Kazen-XzmpA0Os2-201" value="" style="edgeStyle=orthogonalEdgeStyle;rounded=0;orthogonalLoop=1;jettySize=auto;html=1;entryX=0;entryY=0.5;entryDx=0;entryDy=0;" parent="WIyWlLk6GJQsqaUBKTNV-1" source="-gGK8Kazen-XzmpA0Os2-169" target="-gGK8Kazen-XzmpA0Os2-200" edge="1">
          <mxGeometry relative="1" as="geometry">
            <mxPoint x="475" y="1255" as="sourcePoint" />
            <mxPoint x="530" y="1255" as="targetPoint" />
          </mxGeometry>
        </mxCell>
        <mxCell id="-gGK8Kazen-XzmpA0Os2-200" value="" style="rounded=1;whiteSpace=wrap;html=1;fillColor=#e1d5e7;strokeColor=#9673a6;" parent="WIyWlLk6GJQsqaUBKTNV-1" vertex="1">
          <mxGeometry x="494" y="1240" width="10" height="30" as="geometry" />
        </mxCell>
        <mxCell id="-gGK8Kazen-XzmpA0Os2-202" value="" style="rounded=1;whiteSpace=wrap;html=1;fillColor=#e1d5e7;strokeColor=#9673a6;" parent="WIyWlLk6GJQsqaUBKTNV-1" vertex="1">
          <mxGeometry x="655.5" y="1240" width="10" height="30" as="geometry" />
        </mxCell>
        <mxCell id="-gGK8Kazen-XzmpA0Os2-204" value="RollingCreditsScreen" style="rounded=1;whiteSpace=wrap;html=1;fontSize=12;glass=0;strokeWidth=1;shadow=0;" parent="WIyWlLk6GJQsqaUBKTNV-1" vertex="1">
          <mxGeometry x="142" y="1150" width="148" height="40" as="geometry" />
        </mxCell>
        <mxCell id="-gGK8Kazen-XzmpA0Os2-205" value="" style="rounded=1;whiteSpace=wrap;html=1;fontSize=9;glass=0;strokeWidth=1;shadow=0;fillColor=#e1d5e7;strokeColor=#9673a6;" parent="WIyWlLk6GJQsqaUBKTNV-1" vertex="1">
          <mxGeometry x="192" y="1199" width="48" height="11" as="geometry" />
        </mxCell>
        <mxCell id="-gGK8Kazen-XzmpA0Os2-209" style="edgeStyle=orthogonalEdgeStyle;rounded=0;orthogonalLoop=1;jettySize=auto;html=1;entryX=-0.028;entryY=0.536;entryDx=0;entryDy=0;entryPerimeter=0;" parent="WIyWlLk6GJQsqaUBKTNV-1" source="-gGK8Kazen-XzmpA0Os2-81" target="-gGK8Kazen-XzmpA0Os2-162" edge="1">
          <mxGeometry relative="1" as="geometry" />
        </mxCell>
        <mxCell id="-gGK8Kazen-XzmpA0Os2-210" value="to TitleScreen -&amp;gt;" style="rounded=0;whiteSpace=wrap;html=1;dashed=1;perimeterSpacing=8;" parent="WIyWlLk6GJQsqaUBKTNV-1" vertex="1">
          <mxGeometry x="780" y="1100" width="120" height="40" as="geometry" />
        </mxCell>
        <mxCell id="-gGK8Kazen-XzmpA0Os2-211" style="edgeStyle=orthogonalEdgeStyle;rounded=0;orthogonalLoop=1;jettySize=auto;html=1;" parent="WIyWlLk6GJQsqaUBKTNV-1" source="-gGK8Kazen-XzmpA0Os2-162" edge="1">
          <mxGeometry relative="1" as="geometry">
            <mxPoint x="840" y="1100" as="targetPoint" />
          </mxGeometry>
        </mxCell>
        <mxCell id="-gGK8Kazen-XzmpA0Os2-215" style="edgeStyle=orthogonalEdgeStyle;rounded=0;orthogonalLoop=1;jettySize=auto;html=1;entryX=0.5;entryY=0;entryDx=0;entryDy=0;" parent="WIyWlLk6GJQsqaUBKTNV-1" source="-gGK8Kazen-XzmpA0Os2-212" target="-gGK8Kazen-XzmpA0Os2-213" edge="1">
          <mxGeometry relative="1" as="geometry" />
        </mxCell>
        <mxCell id="-gGK8Kazen-XzmpA0Os2-212" value="are you sure?" style="rounded=0;whiteSpace=wrap;html=1;fillColor=#dae8fc;strokeColor=#6c8ebf;" parent="WIyWlLk6GJQsqaUBKTNV-1" vertex="1">
          <mxGeometry x="-440" y="1010" width="100" height="30" as="geometry" />
        </mxCell>
        <mxCell id="-gGK8Kazen-XzmpA0Os2-213" value="to TitleScreen -&amp;gt;" style="rounded=0;whiteSpace=wrap;html=1;dashed=1;perimeterSpacing=8;" parent="WIyWlLk6GJQsqaUBKTNV-1" vertex="1">
          <mxGeometry x="-450" y="1069" width="120" height="40" as="geometry" />
        </mxCell>
        <mxCell id="-gGK8Kazen-XzmpA0Os2-216" value="unpause" style="rounded=1;whiteSpace=wrap;html=1;fontSize=12;glass=0;strokeWidth=1;shadow=0;fillColor=#d5e8d4;strokeColor=#82b366;" parent="WIyWlLk6GJQsqaUBKTNV-1" vertex="1">
          <mxGeometry x="667.5" y="990" width="95" height="30" as="geometry" />
        </mxCell>
        <mxCell id="-gGK8Kazen-XzmpA0Os2-219" value="" style="edgeStyle=orthogonalEdgeStyle;rounded=0;orthogonalLoop=1;jettySize=auto;html=1;entryX=0.5;entryY=0;entryDx=0;entryDy=0;" parent="WIyWlLk6GJQsqaUBKTNV-1" source="-gGK8Kazen-XzmpA0Os2-83" target="-gGK8Kazen-XzmpA0Os2-217" edge="1">
          <mxGeometry relative="1" as="geometry">
            <mxPoint x="413" y="686" as="sourcePoint" />
            <mxPoint x="413" y="733" as="targetPoint" />
          </mxGeometry>
        </mxCell>
        <mxCell id="-gGK8Kazen-XzmpA0Os2-217" value="" style="rounded=1;whiteSpace=wrap;html=1;fontSize=9;glass=0;strokeWidth=1;shadow=0;fillColor=#e1d5e7;strokeColor=#9673a6;" parent="WIyWlLk6GJQsqaUBKTNV-1" vertex="1">
          <mxGeometry x="389" y="709" width="48" height="11" as="geometry" />
        </mxCell>
        <mxCell id="-gGK8Kazen-XzmpA0Os2-223" style="edgeStyle=orthogonalEdgeStyle;rounded=0;orthogonalLoop=1;jettySize=auto;html=1;entryX=0.75;entryY=0;entryDx=0;entryDy=0;" parent="WIyWlLk6GJQsqaUBKTNV-1" source="-gGK8Kazen-XzmpA0Os2-221" target="WIyWlLk6GJQsqaUBKTNV-3" edge="1">
          <mxGeometry relative="1" as="geometry">
            <Array as="points">
              <mxPoint x="365" y="220" />
              <mxPoint x="215" y="220" />
            </Array>
          </mxGeometry>
        </mxCell>
        <mxCell id="-gGK8Kazen-XzmpA0Os2-221" value="load_last_session" style="rounded=0;whiteSpace=wrap;html=1;fillColor=#fff2cc;strokeColor=#d6b656;" parent="WIyWlLk6GJQsqaUBKTNV-1" vertex="1">
          <mxGeometry x="300" y="170" width="129" height="20" as="geometry" />
        </mxCell>
        <mxCell id="-gGK8Kazen-XzmpA0Os2-232" style="edgeStyle=orthogonalEdgeStyle;rounded=0;orthogonalLoop=1;jettySize=auto;html=1;exitX=0;exitY=0.5;exitDx=0;exitDy=0;entryX=1;entryY=0.5;entryDx=0;entryDy=0;" parent="WIyWlLk6GJQsqaUBKTNV-1" source="-gGK8Kazen-XzmpA0Os2-224" target="-gGK8Kazen-XzmpA0Os2-146" edge="1">
          <mxGeometry relative="1" as="geometry" />
        </mxCell>
        <mxCell id="-gGK8Kazen-XzmpA0Os2-224" value="start_new_session" style="rounded=0;whiteSpace=wrap;html=1;fillColor=#fff2cc;strokeColor=#d6b656;" parent="WIyWlLk6GJQsqaUBKTNV-1" vertex="1">
          <mxGeometry x="-112" y="540" width="129" height="20" as="geometry" />
        </mxCell>
        <mxCell id="-gGK8Kazen-XzmpA0Os2-227" value="load_session" style="rounded=0;whiteSpace=wrap;html=1;fillColor=#fff2cc;strokeColor=#d6b656;" parent="WIyWlLk6GJQsqaUBKTNV-1" vertex="1">
          <mxGeometry x="509" y="751" width="129" height="20" as="geometry" />
        </mxCell>
        <mxCell id="-gGK8Kazen-XzmpA0Os2-228" value="The context of the session will determine what menu items are visible or hidden" style="text;html=1;strokeColor=none;fillColor=none;align=left;verticalAlign=middle;whiteSpace=wrap;rounded=0;" parent="WIyWlLk6GJQsqaUBKTNV-1" vertex="1">
          <mxGeometry x="-18" y="385" width="160" height="30" as="geometry" />
        </mxCell>
        <mxCell id="_3qCPCTsx28iA9EUpvNh-0" value="The GameConfiguration&lt;br&gt;determines what menu items to show" style="text;html=1;strokeColor=none;fillColor=none;align=left;verticalAlign=middle;whiteSpace=wrap;rounded=0;" parent="WIyWlLk6GJQsqaUBKTNV-1" vertex="1">
          <mxGeometry x="-18.5" y="330" width="160" height="30" as="geometry" />
        </mxCell>
        <mxCell id="_3qCPCTsx28iA9EUpvNh-4" style="edgeStyle=orthogonalEdgeStyle;rounded=0;orthogonalLoop=1;jettySize=auto;html=1;exitX=0;exitY=0.5;exitDx=0;exitDy=0;" parent="WIyWlLk6GJQsqaUBKTNV-1" source="_3qCPCTsx28iA9EUpvNh-2" edge="1">
          <mxGeometry relative="1" as="geometry">
            <mxPoint x="50.00000000000023" y="724.1428571428573" as="targetPoint" />
          </mxGeometry>
        </mxCell>
        <mxCell id="_3qCPCTsx28iA9EUpvNh-2" value="exit" style="rounded=1;whiteSpace=wrap;html=1;fontSize=12;glass=0;strokeWidth=1;shadow=0;fillColor=#d5e8d4;strokeColor=#82b366;" parent="WIyWlLk6GJQsqaUBKTNV-1" vertex="1">
          <mxGeometry x="84" y="709" width="103" height="30" as="geometry" />
        </mxCell>
        <mxCell id="_3qCPCTsx28iA9EUpvNh-3" value="are you sure?" style="rounded=0;whiteSpace=wrap;html=1;fillColor=#dae8fc;strokeColor=#6c8ebf;" parent="WIyWlLk6GJQsqaUBKTNV-1" vertex="1">
          <mxGeometry x="-50" y="709" width="100" height="30" as="geometry" />
        </mxCell>
      </root>
    </mxGraphModel>
  </diagram>
</mxfile>
